<svg width="24" height="21" viewBox="0 0 24 21" fill="none" xmlns="http://www.w3.org/2000/svg">
<g clip-path="url(#clip0_23_388)">
<path d="M10.5 18.918C10.9219 19.0664 11.375 18.7578 11.375 18.3125V3.57031C11.375 3.40625 11.3125 3.24219 11.1797 3.14062C10.4141 2.53125 8.65625 1.75 6.375 1.75C4.40234 1.75 2.55859 2.26953 1.45703 2.69141C1.01563 2.86328 0.75 3.30078 0.75 3.77344V18.2383C0.75 18.7031 1.25 19.0273 1.69141 18.8828C2.92188 18.4727 4.87109 18 6.375 18C7.69922 18 9.46094 18.5469 10.5 18.918ZM13.5 18.918C14.5391 18.5469 16.3008 18 17.625 18C19.1289 18 21.0781 18.4727 22.3086 18.8828C22.75 19.0313 23.25 18.7031 23.25 18.2383V3.77344C23.25 3.30078 22.9844 2.86328 22.543 2.69531C21.4414 2.26953 19.5977 1.75 17.625 1.75C15.3437 1.75 13.5859 2.53125 12.8203 3.14062C12.6914 3.24219 12.625 3.40625 12.625 3.57031V18.3125C12.625 18.7578 13.082 19.0664 13.5 18.918Z" fill="#A8C7FA"/>
</g>
<defs>
<clipPath id="clip0_23_388">
<path d="M0.75 0.5H23.25V20.5H0.75V0.5Z" fill="white"/>
</clipPath>
</defs>
</svg>
