<svg width="20" height="21" viewBox="0 0 20 21" fill="none" xmlns="http://www.w3.org/2000/svg">
<path d="M20 20.5H0V0.5H20V20.5Z" stroke="#E5E7EB"/>
<path d="M2.5 3C2.5 2.30859 1.94141 1.75 1.25 1.75C0.558594 1.75 0 2.30859 0 3V16.125C0 17.8516 1.39844 19.25 3.125 19.25H18.75C19.4414 19.25 20 18.6914 20 18C20 17.3086 19.4414 16.75 18.75 16.75H3.125C2.78125 16.75 2.5 16.4688 2.5 16.125V3ZM18.3828 6.38281C18.8711 5.89453 18.8711 5.10156 18.3828 4.61328C17.8945 4.125 17.1016 4.125 16.6133 4.61328L12.5 8.73047L10.2578 6.48828C9.76953 6 8.97656 6 8.48828 6.48828L4.11328 10.8633C3.625 11.3516 3.625 12.1445 4.11328 12.6328C4.60156 13.1211 5.39453 13.1211 5.88281 12.6328L9.375 9.14453L11.6172 11.3867C12.1055 11.875 12.8984 11.875 13.3867 11.3867L18.3867 6.38672L18.3828 6.38281Z" fill="#9CA3AF"/>
</svg>
