<svg width="12" height="13" viewBox="0 0 12 13" fill="none" xmlns="http://www.w3.org/2000/svg">
<g clip-path="url(#clip0_23_814)">
<path d="M8.50086 0.952393L7.36649 2.08677L10.4134 5.13364L11.5477 3.99927C12.1337 3.41333 12.1337 2.46411 11.5477 1.87817L10.6243 0.952393C10.0384 0.366455 9.08914 0.366455 8.50321 0.952393H8.50086ZM6.8368 2.61646L1.37352 8.08208C1.12977 8.32583 0.951644 8.62817 0.853207 8.95864L0.0235192 11.7782C-0.0350745 11.9774 0.0188317 12.1907 0.164144 12.336C0.309457 12.4813 0.522738 12.5352 0.719613 12.479L3.53914 11.6493C3.86961 11.5508 4.17196 11.3727 4.41571 11.129L9.88368 5.66333L6.8368 2.61646Z" fill="#6B7280"/>
</g>
<defs>
<clipPath id="clip0_23_814">
<path d="M0 0.5H12V12.5H0V0.5Z" fill="white"/>
</clipPath>
</defs>
</svg>
