<svg width="12" height="13" viewBox="0 0 12 13" fill="none" xmlns="http://www.w3.org/2000/svg">
<g clip-path="url(#clip0_23_157)">
<path d="M11.0531 1.0085C10.5398 0.495215 9.71016 0.495215 9.19687 1.0085L8.49141 1.71162L10.7859 4.00615L11.4914 3.30068C12.0047 2.7874 12.0047 1.95771 11.4914 1.44443L11.0531 1.0085ZM4.04062 6.16475C3.89766 6.30771 3.7875 6.4835 3.72422 6.67803L3.03047 8.75928C2.9625 8.96084 3.01641 9.1835 3.16641 9.33584C3.31641 9.48818 3.53906 9.53975 3.74297 9.47178L5.82422 8.77803C6.01641 8.71475 6.19219 8.60459 6.3375 8.46162L10.2586 4.53818L7.96172 2.24131L4.04062 6.16475ZM2.25 1.9999C1.00781 1.9999 0 3.00771 0 4.2499V10.2499C0 11.4921 1.00781 12.4999 2.25 12.4999H8.25C9.49219 12.4999 10.5 11.4921 10.5 10.2499V7.9999C10.5 7.58506 10.1648 7.2499 9.75 7.2499C9.33516 7.2499 9 7.58506 9 7.9999V10.2499C9 10.6647 8.66484 10.9999 8.25 10.9999H2.25C1.83516 10.9999 1.5 10.6647 1.5 10.2499V4.2499C1.5 3.83506 1.83516 3.4999 2.25 3.4999H4.5C4.91484 3.4999 5.25 3.16475 5.25 2.7499C5.25 2.33506 4.91484 1.9999 4.5 1.9999H2.25Z" fill="white"/>
</g>
<defs>
<clipPath id="clip0_23_157">
<path d="M0 0.5H12V12.5H0V0.5Z" fill="white"/>
</clipPath>
</defs>
</svg>
