<svg width="10" height="13" viewBox="0 0 10 13" fill="none" xmlns="http://www.w3.org/2000/svg">
<g clip-path="url(#clip0_23_151)">
<path d="M5 0.5C3.75781 0.5 2.75 1.50781 2.75 2.75V6.5C2.75 7.74219 3.75781 8.75 5 8.75C6.24219 8.75 7.25 7.74219 7.25 6.5V2.75C7.25 1.50781 6.24219 0.5 5 0.5ZM2 5.5625C2 5.25078 1.74922 5 1.4375 5C1.12578 5 0.875 5.25078 0.875 5.5625V6.5C0.875 8.58828 2.42656 10.3133 4.4375 10.5875V11.375H3.3125C3.00078 11.375 2.75 11.6258 2.75 11.9375C2.75 12.2492 3.00078 12.5 3.3125 12.5H5H6.6875C6.99922 12.5 7.25 12.2492 7.25 11.9375C7.25 11.6258 6.99922 11.375 6.6875 11.375H5.5625V10.5875C7.57344 10.3133 9.125 8.58828 9.125 6.5V5.5625C9.125 5.25078 8.87422 5 8.5625 5C8.25078 5 8 5.25078 8 5.5625V6.5C8 8.15703 6.65703 9.5 5 9.5C3.34297 9.5 2 8.15703 2 6.5V5.5625Z" fill="white"/>
</g>
<defs>
<clipPath id="clip0_23_151">
<path d="M0.5 0.5H9.5V12.5H0.5V0.5Z" fill="white"/>
</clipPath>
</defs>
</svg>
