<svg width="20" height="21" viewBox="0 0 20 21" fill="none" xmlns="http://www.w3.org/2000/svg">
<g clip-path="url(#clip0_23_398)">
<path d="M19.3711 7.00781C19.4961 7.34766 19.3906 7.72656 19.1211 7.96875L17.4297 9.50781C17.4727 9.83203 17.4961 10.1641 17.4961 10.5C17.4961 10.8359 17.4727 11.168 17.4297 11.4922L19.1211 13.0312C19.3906 13.2734 19.4961 13.6523 19.3711 13.9922C19.1992 14.457 18.9922 14.9023 18.7539 15.332L18.5703 15.6484C18.3125 16.0781 18.0234 16.4844 17.707 16.8672C17.4766 17.1484 17.0937 17.2422 16.75 17.1328L14.5742 16.4414C14.0508 16.8438 13.4727 17.1797 12.8555 17.4336L12.3672 19.6641C12.2891 20.0195 12.0156 20.3008 11.6562 20.3594C11.1172 20.4492 10.5625 20.4961 9.99609 20.4961C9.42968 20.4961 8.87499 20.4492 8.33593 20.3594C7.97656 20.3008 7.70312 20.0195 7.62499 19.6641L7.13671 17.4336C6.51953 17.1797 5.9414 16.8438 5.41796 16.4414L3.24609 17.1367C2.90234 17.2461 2.51953 17.1484 2.28906 16.8711C1.97265 16.4883 1.68359 16.082 1.42578 15.6523L1.24218 15.3359C1.0039 14.9062 0.79687 14.4609 0.624995 13.9961C0.499995 13.6562 0.605464 13.2773 0.874995 13.0352L2.5664 11.4961C2.52343 11.168 2.49999 10.8359 2.49999 10.5C2.49999 10.1641 2.52343 9.83203 2.5664 9.50781L0.874995 7.96875C0.605464 7.72656 0.499995 7.34766 0.624995 7.00781C0.79687 6.54297 1.0039 6.09766 1.24218 5.66797L1.42578 5.35156C1.68359 4.92188 1.97265 4.51562 2.28906 4.13281C2.51953 3.85156 2.90234 3.75781 3.24609 3.86719L5.42187 4.55859C5.94531 4.15625 6.52343 3.82031 7.14062 3.56641L7.6289 1.33594C7.70703 0.980469 7.98046 0.699219 8.33984 0.640625C8.8789 0.546875 9.43359 0.5 9.99999 0.5C10.5664 0.5 11.1211 0.546875 11.6602 0.636719C12.0195 0.695312 12.293 0.976562 12.3711 1.33203L12.8594 3.5625C13.4766 3.81641 14.0547 4.15234 14.5781 4.55469L16.7539 3.86328C17.0977 3.75391 17.4805 3.85156 17.7109 4.12891C18.0273 4.51172 18.3164 4.91797 18.5742 5.34766L18.7578 5.66406C18.9961 6.09375 19.2031 6.53906 19.375 7.00391L19.3711 7.00781ZM9.99999 13.625C10.8288 13.625 11.6237 13.2958 12.2097 12.7097C12.7958 12.1237 13.125 11.3288 13.125 10.5C13.125 9.6712 12.7958 8.87634 12.2097 8.29029C11.6237 7.70424 10.8288 7.375 9.99999 7.375C9.17119 7.375 8.37634 7.70424 7.79029 8.29029C7.20423 8.87634 6.87499 9.6712 6.87499 10.5C6.87499 11.3288 7.20423 12.1237 7.79029 12.7097C8.37634 13.2958 9.17119 13.625 9.99999 13.625Z" fill="#9CA3AF"/>
</g>
<defs>
<clipPath id="clip0_23_398">
<path d="M0 0.5H20V20.5H0V0.5Z" fill="white"/>
</clipPath>
</defs>
</svg>
