<svg width="16" height="17" viewBox="0 0 16 17" fill="none" xmlns="http://www.w3.org/2000/svg">
<g clip-path="url(#clip0_23_467)">
<path d="M12.8219 7.71873L13.175 7.3656L12.1156 6.30623L10.175 4.3656L9.11562 3.30623L8.7625 3.65935L8.05625 4.3656L1.83125 10.5906C1.50625 10.9156 1.26875 11.3187 1.1375 11.7593L0.0312488 15.5219C-0.0468762 15.7844 0.0249988 16.0687 0.221874 16.2625C0.418749 16.4562 0.699999 16.5281 0.962499 16.4531L4.72187 15.3469C5.1625 15.2156 5.56562 14.9781 5.89062 14.6531L12.1156 8.4281L12.8219 7.71873ZM5 12.9812L4.71562 13.6906C4.59062 13.7875 4.45 13.8594 4.3 13.9062L1.85625 14.625L2.575 12.1844C2.61875 12.0312 2.69375 11.8906 2.79062 11.7687L3.5 11.4844V12.4844C3.5 12.7593 3.725 12.9844 4 12.9844H5V12.9812ZM11.3344 1.08435L10.8844 1.53748L10.1781 2.24373L9.82187 2.59685L10.8812 3.65623L12.8219 5.59685L13.8812 6.65623L14.2344 6.3031L14.9406 5.59685L15.3937 5.14373C16.175 4.36248 16.175 3.09685 15.3937 2.3156L14.1656 1.08435C13.3844 0.303101 12.1187 0.303101 11.3375 1.08435H11.3344ZM9.85312 6.33435L5.35312 10.8344C5.15937 11.0281 4.84062 11.0281 4.64687 10.8344C4.45312 10.6406 4.45312 10.3219 4.64687 10.1281L9.14687 5.6281C9.34062 5.43435 9.65937 5.43435 9.85312 5.6281C10.0469 5.82185 10.0469 6.1406 9.85312 6.33435Z" fill="white"/>
</g>
<defs>
<clipPath id="clip0_23_467">
<path d="M0 0.5H16V16.5H0V0.5Z" fill="white"/>
</clipPath>
</defs>
</svg>
