<svg width="10" height="13" viewBox="0 0 10 13" fill="none" xmlns="http://www.w3.org/2000/svg">
<g clip-path="url(#clip0_23_154)">
<path d="M2 0.5C1.17266 0.5 0.5 1.17266 0.5 2V11C0.5 11.8273 1.17266 12.5 2 12.5H8C8.82734 12.5 9.5 11.8273 9.5 11V4.25H6.5C6.08516 4.25 5.75 3.91484 5.75 3.5V0.5H2ZM6.5 0.5V3.5H9.5L6.5 0.5ZM3.125 6.5H6.875C7.08125 6.5 7.25 6.66875 7.25 6.875C7.25 7.08125 7.08125 7.25 6.875 7.25H3.125C2.91875 7.25 2.75 7.08125 2.75 6.875C2.75 6.66875 2.91875 6.5 3.125 6.5ZM3.125 8H6.875C7.08125 8 7.25 8.16875 7.25 8.375C7.25 8.58125 7.08125 8.75 6.875 8.75H3.125C2.91875 8.75 2.75 8.58125 2.75 8.375C2.75 8.16875 2.91875 8 3.125 8ZM3.125 9.5H6.875C7.08125 9.5 7.25 9.66875 7.25 9.875C7.25 10.0813 7.08125 10.25 6.875 10.25H3.125C2.91875 10.25 2.75 10.0813 2.75 9.875C2.75 9.66875 2.91875 9.5 3.125 9.5Z" fill="white"/>
</g>
<defs>
<clipPath id="clip0_23_154">
<path d="M0.5 0.5H9.5V12.5H0.5V0.5Z" fill="white"/>
</clipPath>
</defs>
</svg>
