<svg width="82" height="102" viewBox="0 0 82 102" fill="none" xmlns="http://www.w3.org/2000/svg">
<path d="M73 1H9C4.58172 1 1 4.58172 1 9V93C1 97.4183 4.58172 101 9 101H73C77.4183 101 81 97.4183 81 93V9C81 4.58172 77.4183 1 73 1Z" fill="#FAFAFA" stroke="#E5E7EB" stroke-width="2"/>
<path d="M69.5 16H12.5C11.6716 16 11 16.6716 11 17.5C11 18.3284 11.6716 19 12.5 19H69.5C70.3284 19 71 18.3284 71 17.5C71 16.6716 70.3284 16 69.5 16Z" fill="#D1D5DB"/>
<path d="M49.5 26H12.5C11.6716 26 11 26.6716 11 27.5C11 28.3284 11.6716 29 12.5 29H49.5C50.3284 29 51 28.3284 51 27.5C51 26.6716 50.3284 26 49.5 26Z" fill="#D1D5DB"/>
<path d="M59.5 36H12.5C11.6716 36 11 36.6716 11 37.5C11 38.3284 11.6716 39 12.5 39H59.5C60.3284 39 61 38.3284 61 37.5C61 36.6716 60.3284 36 59.5 36Z" fill="#D1D5DB"/>
<path d="M44.5 46H12.5C11.6716 46 11 46.6716 11 47.5C11 48.3284 11.6716 49 12.5 49H44.5C45.3284 49 46 48.3284 46 47.5C46 46.6716 45.3284 46 44.5 46Z" fill="#D1D5DB"/>
<path d="M64.5 56H12.5C11.6716 56 11 56.6716 11 57.5C11 58.3284 11.6716 59 12.5 59H64.5C65.3284 59 66 58.3284 66 57.5C66 56.6716 65.3284 56 64.5 56Z" fill="#D1D5DB"/>
<path d="M54.5 66H12.5C11.6716 66 11 66.6716 11 67.5C11 68.3284 11.6716 69 12.5 69H54.5C55.3284 69 56 68.3284 56 67.5C56 66.6716 55.3284 66 54.5 66Z" fill="#D1D5DB"/>
<path d="M39.5 76H12.5C11.6716 76 11 76.6716 11 77.5C11 78.3284 11.6716 79 12.5 79H39.5C40.3284 79 41 78.3284 41 77.5C41 76.6716 40.3284 76 39.5 76Z" fill="#D1D5DB"/>
</svg>
