<svg width="11" height="13" viewBox="0 0 11 13" fill="none" xmlns="http://www.w3.org/2000/svg">
<g clip-path="url(#clip0_27_66)">
<path d="M3.66875 0.914844L3.5 1.25H1.25C0.835156 1.25 0.5 1.58516 0.5 2C0.5 2.41484 0.835156 2.75 1.25 2.75H10.25C10.6648 2.75 11 2.41484 11 2C11 1.58516 10.6648 1.25 10.25 1.25H8L7.83125 0.914844C7.70469 0.659375 7.44453 0.5 7.16094 0.5H4.33906C4.05547 0.5 3.79531 0.659375 3.66875 0.914844ZM10.25 3.5H1.25L1.74688 11.4453C1.78438 12.0383 2.27656 12.5 2.86953 12.5H8.63047C9.22344 12.5 9.71562 12.0383 9.75312 11.4453L10.25 3.5Z" fill="#6B7280"/>
</g>
<defs>
<clipPath id="clip0_27_66">
<path d="M0.5 0.5H11V12.5H0.5V0.5Z" fill="white"/>
</clipPath>
</defs>
</svg>
